<svg xmlns="http://www.w3.org/2000/svg" id="export" class="canvas" preserveAspectRatio="xMidYMid meet" style="" width="748" height="51"><rect id="background" fill="#fff" pointer-events="all" width="748" height="51"/><g id="origin" transform="translate(2.3000000000000003, 2.3000000000000003) scale(1)"><g id="clusters" class="clusters"/><g id="edge-paths" class="edge-paths" style="pointer-events: none;"><defs><marker id="arrowhead" viewBox="0 0 10 10" refX="9" refY="5" markerUnits="strokeWidth" markerWidth="8" markerHeight="6" orient="auto" style="fill: rgb(0, 0, 0);"><path d="M 0 0 L 10 5 L 0 10 L 4 5 z" style="stroke-width: 1;"/></marker><marker id="arrowhead-select" viewBox="0 0 10 10" refX="9" refY="5" markerUnits="strokeWidth" markerWidth="8" markerHeight="6" orient="auto" style="fill: rgba(220, 0, 0, 0.9);"><path d="M 0 0 L 10 5 L 0 10 L 4 5 z" style="stroke-width: 1;"/></marker><marker id="arrowhead-hover" viewBox="0 0 10 10" refX="9" refY="5" markerUnits="strokeWidth" markerWidth="8" markerHeight="6" orient="auto" style="fill: rgba(220, 0, 0, 0.9);"><path d="M 0 0 L 10 5 L 0 10 L 4 5 z" style="stroke-width: 1;"/></marker></defs><path id="edge-input_layer" class="edge-path" d="M68.2099609375,23L69.87662760416667,23C71.54329427083333,23,74.87662760416667,23,78.2099609375,23C81.54329427083333,23,84.87662760416667,23,88.2099609375,23C91.54329427083333,23,94.87662760416667,23,98.2099609375,23C101.54329427083333,23,104.87662760416667,23,106.54329427083333,23L108.2099609375,23" style="stroke: rgb(0, 0, 0); stroke-width: 1px; fill: none; marker-end: url(&quot;#arrowhead&quot;);"/><path id="edge-conv1d" class="edge-path" d="M171.7099609375,23L173.37662760416666,23C175.04329427083334,23,178.37662760416666,23,181.7099609375,23C185.04329427083334,23,188.37662760416666,23,190.04329427083334,23L191.7099609375,23" style="stroke: rgb(0, 0, 0); stroke-width: 1px; fill: none; marker-end: url(&quot;#arrowhead&quot;);"/><path id="edge-conv1d_1" class="edge-path" d="M255.2099609375,23L256.8766276041667,23C258.5432942708333,23,261.8766276041667,23,265.2099609375,23C268.5432942708333,23,271.8766276041667,23,273.5432942708333,23L275.2099609375,23" style="stroke: rgb(0, 0, 0); stroke-width: 1px; fill: none; marker-end: url(&quot;#arrowhead&quot;);"/><path id="edge-max_pooling1d" class="edge-path" d="M360.33642578125,23L362.0030924479167,23C363.6697591145833,23,367.0030924479167,23,370.33642578125,23C373.6697591145833,23,377.0030924479167,23,378.6697591145833,23L380.33642578125,23" style="stroke: rgb(0, 0, 0); stroke-width: 1px; fill: none; marker-end: url(&quot;#arrowhead&quot;);"/><path id="edge-dropout" class="edge-path" d="M435.4560546875,23L437.1227213541667,23C438.7893880208333,23,442.1227213541667,23,445.4560546875,23C448.7893880208333,23,452.1227213541667,23,453.7893880208333,23L455.4560546875,23" style="stroke: rgb(0, 0, 0); stroke-width: 1px; fill: none; marker-end: url(&quot;#arrowhead&quot;);"/><path id="edge-flatten" class="edge-path" d="M502.5341796875,23L504.2008463541667,23C505.8675130208333,23,509.2008463541667,23,512.5341796875,23C515.8675130208334,23,519.2008463541666,23,520.8675130208334,23L522.5341796875,23" style="stroke: rgb(0, 0, 0); stroke-width: 1px; fill: none; marker-end: url(&quot;#arrowhead&quot;);"/><path id="edge-dense" class="edge-path" d="M586.0341796875,23L587.7008463541666,23C589.3675130208334,23,592.7008463541666,23,596.0341796875,23C599.3675130208334,23,602.7008463541666,23,604.3675130208334,23L606.0341796875,23" style="stroke: rgb(0, 0, 0); stroke-width: 1px; fill: none; marker-end: url(&quot;#arrowhead&quot;);"/><path id="edge-dense_1" class="edge-path" d="M669.5341796875,23L671.2008463541666,23C672.8675130208334,23,676.2008463541666,23,679.5341796875,23C682.8675130208334,23,686.2008463541666,23,687.8675130208334,23L689.5341796875,23" style="stroke: rgb(0, 0, 0); stroke-width: 1px; fill: none; marker-end: url(&quot;#arrowhead&quot;);"/></g><g id="edge-labels" class="edge-labels"/><g id="nodes" class="nodes"><g id="input-name-input_layer" class="node graph-input" style="" transform="translate(0,11.5)"><g class="node-item graph-item-input" transform="translate(0,0)"><path d="M5,0h58.2099609375a5,5 0 0 1 5,5v13a5,5 0 0 1 -5,5h-58.2099609375a5,5 0 0 1 -5,-5v-13a5,5 0 0 1 5,-5z" style="stroke: rgb(0, 0, 0); fill: rgb(238, 238, 238); stroke-width: 0;"/><text x="6" y="16" style="font-family: -apple-system, BlinkMacSystemFont, &quot;Segoe WPC&quot;, &quot;Segoe UI&quot;, Ubuntu, &quot;Droid Sans&quot;, sans-serif, &quot;PingFang SC&quot;; font-size: 11px; text-rendering: geometricprecision; user-select: none;">input_layer</text><title>float32</title></g><path class="node node-border" d="M5,0h58.2099609375a5,5 0 0 1 5,5v13a5,5 0 0 1 -5,5h-58.2099609375a5,5 0 0 1 -5,-5v-13a5,5 0 0 1 5,-5z" style="stroke: rgb(51, 51, 51); fill: none; stroke-width: 1px;"/></g><g id="node-name-conv1d" class="node graph-node" style="" transform="translate(108.2099609375,0)"><g class="node-item node-item-type node-item-type-layer" transform="translate(0,0)"><path d="M5,0h53.5a5,5 0 0 1 5,5v18a0,0 0 0 1 0,0h-63.5a0,0 0 0 1 0,0v-18a5,5 0 0 1 5,-5z" style="stroke: rgb(0, 0, 0); fill: rgb(51, 85, 136); stroke-width: 0;"/><text x="6" y="16" style="font-family: -apple-system, BlinkMacSystemFont, &quot;Segoe WPC&quot;, &quot;Segoe UI&quot;, Ubuntu, &quot;Droid Sans&quot;, sans-serif, &quot;PingFang SC&quot;; font-size: 11px; text-rendering: geometricprecision; user-select: none; fill: rgb(255, 255, 255);">Conv1D</text><title>conv1d</title></g><g class="node-item node-item-type node-item-type-activation" transform="translate(0,23)"><path d="M0,0h63.5a0,0 0 0 1 0,0v18a5,5 0 0 1 -5,5h-53.5a5,5 0 0 1 -5,-5v-18a0,0 0 0 1 0,0z" style="stroke: rgb(0, 0, 0); fill: rgb(112, 41, 33); stroke-width: 0;"/><text x="6" y="16" style="font-family: -apple-system, BlinkMacSystemFont, &quot;Segoe WPC&quot;, &quot;Segoe UI&quot;, Ubuntu, &quot;Droid Sans&quot;, sans-serif, &quot;PingFang SC&quot;; font-size: 11px; text-rendering: geometricprecision; user-select: none; fill: rgb(255, 255, 255);">Activation</text></g><line class="node" x1="0" x2="63.5" y1="23" y2="23" style="stroke: rgb(51, 51, 51); fill: none; stroke-width: 1px;"/><path class="node node-border" d="M5,0h53.5a5,5 0 0 1 5,5v36a5,5 0 0 1 -5,5h-53.5a5,5 0 0 1 -5,-5v-36a5,5 0 0 1 5,-5z" style="stroke: rgb(51, 51, 51); fill: none; stroke-width: 1px;"/></g><g id="node-name-conv1d_1" class="node graph-node" style="" transform="translate(191.7099609375,0)"><g class="node-item node-item-type node-item-type-layer" transform="translate(0,0)"><path d="M5,0h53.5a5,5 0 0 1 5,5v18a0,0 0 0 1 0,0h-63.5a0,0 0 0 1 0,0v-18a5,5 0 0 1 5,-5z" style="stroke: rgb(0, 0, 0); fill: rgb(51, 85, 136); stroke-width: 0;"/><text x="6" y="16" style="font-family: -apple-system, BlinkMacSystemFont, &quot;Segoe WPC&quot;, &quot;Segoe UI&quot;, Ubuntu, &quot;Droid Sans&quot;, sans-serif, &quot;PingFang SC&quot;; font-size: 11px; text-rendering: geometricprecision; user-select: none; fill: rgb(255, 255, 255);">Conv1D</text><title>conv1d_1</title></g><g class="node-item node-item-type node-item-type-activation" transform="translate(0,23)"><path d="M0,0h63.5a0,0 0 0 1 0,0v18a5,5 0 0 1 -5,5h-53.5a5,5 0 0 1 -5,-5v-18a0,0 0 0 1 0,0z" style="stroke: rgb(0, 0, 0); fill: rgb(112, 41, 33); stroke-width: 0;"/><text x="6" y="16" style="font-family: -apple-system, BlinkMacSystemFont, &quot;Segoe WPC&quot;, &quot;Segoe UI&quot;, Ubuntu, &quot;Droid Sans&quot;, sans-serif, &quot;PingFang SC&quot;; font-size: 11px; text-rendering: geometricprecision; user-select: none; fill: rgb(255, 255, 255);">Activation</text></g><line class="node" x1="0" x2="63.5" y1="23" y2="23" style="stroke: rgb(51, 51, 51); fill: none; stroke-width: 1px;"/><path class="node node-border" d="M5,0h53.5a5,5 0 0 1 5,5v36a5,5 0 0 1 -5,5h-53.5a5,5 0 0 1 -5,-5v-36a5,5 0 0 1 5,-5z" style="stroke: rgb(51, 51, 51); fill: none; stroke-width: 1px;"/></g><g id="node-name-max_pooling1d" class="node graph-node" style="" transform="translate(275.2099609375,11.5)"><g class="node-item node-item-type node-item-type-pool" transform="translate(0,0)"><path d="M5,0h75.12646484375a5,5 0 0 1 5,5v13a5,5 0 0 1 -5,5h-75.12646484375a5,5 0 0 1 -5,-5v-13a5,5 0 0 1 5,-5z" style="stroke: rgb(0, 0, 0); fill: rgb(51, 85, 51); stroke-width: 0;"/><text x="6" y="16" style="font-family: -apple-system, BlinkMacSystemFont, &quot;Segoe WPC&quot;, &quot;Segoe UI&quot;, Ubuntu, &quot;Droid Sans&quot;, sans-serif, &quot;PingFang SC&quot;; font-size: 11px; text-rendering: geometricprecision; user-select: none; fill: rgb(255, 255, 255);">MaxPooling1D</text><title>max_pooling1d</title></g><path class="node node-border" d="M5,0h75.12646484375a5,5 0 0 1 5,5v13a5,5 0 0 1 -5,5h-75.12646484375a5,5 0 0 1 -5,-5v-13a5,5 0 0 1 5,-5z" style="stroke: rgb(51, 51, 51); fill: none; stroke-width: 1px;"/></g><g id="node-name-dropout" class="node graph-node" style="" transform="translate(380.33642578125,11.5)"><g class="node-item node-item-type node-item-type-dropout" transform="translate(0,0)"><path d="M5,0h45.11962890625a5,5 0 0 1 5,5v13a5,5 0 0 1 -5,5h-45.11962890625a5,5 0 0 1 -5,-5v-13a5,5 0 0 1 5,-5z" style="stroke: rgb(0, 0, 0); fill: rgb(69, 71, 112); stroke-width: 0;"/><text x="6" y="16" style="font-family: -apple-system, BlinkMacSystemFont, &quot;Segoe WPC&quot;, &quot;Segoe UI&quot;, Ubuntu, &quot;Droid Sans&quot;, sans-serif, &quot;PingFang SC&quot;; font-size: 11px; text-rendering: geometricprecision; user-select: none; fill: rgb(255, 255, 255);">Dropout</text><title>dropout</title></g><path class="node node-border" d="M5,0h45.11962890625a5,5 0 0 1 5,5v13a5,5 0 0 1 -5,5h-45.11962890625a5,5 0 0 1 -5,-5v-13a5,5 0 0 1 5,-5z" style="stroke: rgb(51, 51, 51); fill: none; stroke-width: 1px;"/></g><g id="node-name-flatten" class="node graph-node" style="" transform="translate(455.4560546875,11.5)"><g class="node-item node-item-type node-item-type-shape" transform="translate(0,0)"><path d="M5,0h37.078125a5,5 0 0 1 5,5v13a5,5 0 0 1 -5,5h-37.078125a5,5 0 0 1 -5,-5v-13a5,5 0 0 1 5,-5z" style="stroke: rgb(0, 0, 0); fill: rgb(108, 79, 71); stroke-width: 0;"/><text x="6" y="16" style="font-family: -apple-system, BlinkMacSystemFont, &quot;Segoe WPC&quot;, &quot;Segoe UI&quot;, Ubuntu, &quot;Droid Sans&quot;, sans-serif, &quot;PingFang SC&quot;; font-size: 11px; text-rendering: geometricprecision; user-select: none; fill: rgb(255, 255, 255);">Flatten</text><title>flatten</title></g><path class="node node-border" d="M5,0h37.078125a5,5 0 0 1 5,5v13a5,5 0 0 1 -5,5h-37.078125a5,5 0 0 1 -5,-5v-13a5,5 0 0 1 5,-5z" style="stroke: rgb(51, 51, 51); fill: none; stroke-width: 1px;"/></g><g id="node-name-dense" class="node graph-node" style="" transform="translate(522.5341796875,0)"><g class="node-item node-item-type node-item-type-layer" transform="translate(0,0)"><path d="M5,0h53.5a5,5 0 0 1 5,5v18a0,0 0 0 1 0,0h-63.5a0,0 0 0 1 0,0v-18a5,5 0 0 1 5,-5z" style="stroke: rgb(0, 0, 0); fill: rgb(51, 85, 136); stroke-width: 0;"/><text x="6" y="16" style="font-family: -apple-system, BlinkMacSystemFont, &quot;Segoe WPC&quot;, &quot;Segoe UI&quot;, Ubuntu, &quot;Droid Sans&quot;, sans-serif, &quot;PingFang SC&quot;; font-size: 11px; text-rendering: geometricprecision; user-select: none; fill: rgb(255, 255, 255);">Dense</text><title>dense</title></g><g class="node-item node-item-type node-item-type-activation" transform="translate(0,23)"><path d="M0,0h63.5a0,0 0 0 1 0,0v18a5,5 0 0 1 -5,5h-53.5a5,5 0 0 1 -5,-5v-18a0,0 0 0 1 0,0z" style="stroke: rgb(0, 0, 0); fill: rgb(112, 41, 33); stroke-width: 0;"/><text x="6" y="16" style="font-family: -apple-system, BlinkMacSystemFont, &quot;Segoe WPC&quot;, &quot;Segoe UI&quot;, Ubuntu, &quot;Droid Sans&quot;, sans-serif, &quot;PingFang SC&quot;; font-size: 11px; text-rendering: geometricprecision; user-select: none; fill: rgb(255, 255, 255);">Activation</text></g><line class="node" x1="0" x2="63.5" y1="23" y2="23" style="stroke: rgb(51, 51, 51); fill: none; stroke-width: 1px;"/><path class="node node-border" d="M5,0h53.5a5,5 0 0 1 5,5v36a5,5 0 0 1 -5,5h-53.5a5,5 0 0 1 -5,-5v-36a5,5 0 0 1 5,-5z" style="stroke: rgb(51, 51, 51); fill: none; stroke-width: 1px;"/></g><g id="node-name-dense_1" class="node graph-node" style="" transform="translate(606.0341796875,0)"><g class="node-item node-item-type node-item-type-layer" transform="translate(0,0)"><path d="M5,0h53.5a5,5 0 0 1 5,5v18a0,0 0 0 1 0,0h-63.5a0,0 0 0 1 0,0v-18a5,5 0 0 1 5,-5z" style="stroke: rgb(0, 0, 0); fill: rgb(51, 85, 136); stroke-width: 0;"/><text x="6" y="16" style="font-family: -apple-system, BlinkMacSystemFont, &quot;Segoe WPC&quot;, &quot;Segoe UI&quot;, Ubuntu, &quot;Droid Sans&quot;, sans-serif, &quot;PingFang SC&quot;; font-size: 11px; text-rendering: geometricprecision; user-select: none; fill: rgb(255, 255, 255);">Dense</text><title>dense_1</title></g><g class="node-item node-item-type node-item-type-activation" transform="translate(0,23)"><path d="M0,0h63.5a0,0 0 0 1 0,0v18a5,5 0 0 1 -5,5h-53.5a5,5 0 0 1 -5,-5v-18a0,0 0 0 1 0,0z" style="stroke: rgb(0, 0, 0); fill: rgb(112, 41, 33); stroke-width: 0;"/><text x="6" y="16" style="font-family: -apple-system, BlinkMacSystemFont, &quot;Segoe WPC&quot;, &quot;Segoe UI&quot;, Ubuntu, &quot;Droid Sans&quot;, sans-serif, &quot;PingFang SC&quot;; font-size: 11px; text-rendering: geometricprecision; user-select: none; fill: rgb(255, 255, 255);">Activation</text></g><line class="node" x1="0" x2="63.5" y1="23" y2="23" style="stroke: rgb(51, 51, 51); fill: none; stroke-width: 1px;"/><path class="node node-border" d="M5,0h53.5a5,5 0 0 1 5,5v36a5,5 0 0 1 -5,5h-53.5a5,5 0 0 1 -5,-5v-36a5,5 0 0 1 5,-5z" style="stroke: rgb(51, 51, 51); fill: none; stroke-width: 1px;"/></g><g class="node" style="" transform="translate(689.5341796875,11.5)"><g class="node-item graph-item-output" transform="translate(0,0)"><path d="M5,0h43.375a5,5 0 0 1 5,5v13a5,5 0 0 1 -5,5h-43.375a5,5 0 0 1 -5,-5v-13a5,5 0 0 1 5,-5z" style="stroke: rgb(0, 0, 0); fill: rgb(238, 238, 238); stroke-width: 0;"/><text x="6" y="16" style="font-family: -apple-system, BlinkMacSystemFont, &quot;Segoe WPC&quot;, &quot;Segoe UI&quot;, Ubuntu, &quot;Droid Sans&quot;, sans-serif, &quot;PingFang SC&quot;; font-size: 11px; text-rendering: geometricprecision; user-select: none;">dense_1</text></g><path class="node node-border" d="M5,0h43.375a5,5 0 0 1 5,5v13a5,5 0 0 1 -5,5h-43.375a5,5 0 0 1 -5,-5v-13a5,5 0 0 1 5,-5z" style="stroke: rgb(51, 51, 51); fill: none; stroke-width: 1px;"/></g></g></g></svg>