<svg xmlns="http://www.w3.org/2000/svg" id="export" class="canvas" preserveAspectRatio="xMidYMid meet" style="" width="177" height="1256"><rect id="background" fill="#fff" pointer-events="all" width="177" height="1256"/><g id="origin" transform="translate(8.039892578125, 8.039892578134095) scale(1)"><g id="clusters" class="clusters"/><g id="edge-paths" class="edge-paths" style="pointer-events: none;"><defs><marker id="arrowhead" viewBox="0 0 10 10" refX="9" refY="5" markerUnits="strokeWidth" markerWidth="8" markerHeight="6" orient="auto" style="fill: rgb(0, 0, 0);"><path d="M 0 0 L 10 5 L 0 10 L 4 5 z" style="stroke-width: 1;"/></marker><marker id="arrowhead-select" viewBox="0 0 10 10" refX="9" refY="5" markerUnits="strokeWidth" markerWidth="8" markerHeight="6" orient="auto" style="fill: rgba(220, 0, 0, 0.9);"><path d="M 0 0 L 10 5 L 0 10 L 4 5 z" style="stroke-width: 1;"/></marker><marker id="arrowhead-hover" viewBox="0 0 10 10" refX="9" refY="5" markerUnits="strokeWidth" markerWidth="8" markerHeight="6" orient="auto" style="fill: rgba(220, 0, 0, 0.9);"><path d="M 0 0 L 10 5 L 0 10 L 4 5 z" style="stroke-width: 1;"/></marker></defs><path id="edge-serving_default_keras_tensor:0&#10;0" class="edge-path" d="M80.39892578125,23L80.39892578125,24.666666666666668C80.39892578125,26.333333333333332,80.39892578125,29.666666666666668,80.39892578125,35C80.39892578125,40.333333333333336,80.39892578125,47.666666666666664,80.39892578125,55C80.39892578125,62.333333333333336,80.39892578125,69.66666666666667,80.39892578125,75C80.39892578125,80.33333333333333,80.39892578125,83.66666666666667,80.39892578125,85.33333333333333L80.39892578125,87" style="stroke: rgb(0, 0, 0); stroke-width: 1px; fill: none; marker-end: url(&quot;#arrowhead&quot;);"/><path id="edge-sequential_1/conv1d_1/convolution/ExpandDims&#10;14" class="edge-path" d="M80.39892578125,130L80.39892578125,133.66666666666666C80.39892578125,137.33333333333334,80.39892578125,144.66666666666666,80.39892578125,152C80.39892578125,159.33333333333334,80.39892578125,166.66666666666666,80.39892578125,170.33333333333334L80.39892578125,174" style="stroke: rgb(0, 0, 0); stroke-width: 1px; fill: none; marker-end: url(&quot;#arrowhead&quot;);"/><path id="edge-sequential_1/conv1d_1/Relu;sequential_1/conv1d_1/BiasAdd;sequential_1/conv1d_1/convolution/Squeeze;;sequential_1/conv1d_1/convolution&#10;15" class="edge-path" d="M80.39892578125,254L80.39892578125,257.6666666666667C80.39892578125,261.3333333333333,80.39892578125,268.6666666666667,80.39892578125,276C80.39892578125,283.3333333333333,80.39892578125,290.6666666666667,80.39892578125,294.3333333333333L80.39892578125,298" style="stroke: rgb(0, 0, 0); stroke-width: 1px; fill: none; marker-end: url(&quot;#arrowhead&quot;);"/><path id="edge-sequential_1/conv1d_1/Relu;sequential_1/conv1d_1/BiasAdd;sequential_1/conv1d_1/convolution/Squeeze;&#10;16" class="edge-path" d="M80.39892578125,341L80.39892578125,344.6666666666667C80.39892578125,348.3333333333333,80.39892578125,355.6666666666667,80.39892578125,363C80.39892578125,370.3333333333333,80.39892578125,377.6666666666667,80.39892578125,381.3333333333333L80.39892578125,385" style="stroke: rgb(0, 0, 0); stroke-width: 1px; fill: none; marker-end: url(&quot;#arrowhead&quot;);"/><path id="edge-sequential_1/conv1d_1_2/convolution/ExpandDims&#10;17" class="edge-path" d="M80.39892578125,428L80.39892578125,431.6666666666667C80.39892578125,435.3333333333333,80.39892578125,442.6666666666667,80.39892578125,450C80.39892578125,457.3333333333333,80.39892578125,464.6666666666667,80.39892578125,468.3333333333333L80.39892578125,472" style="stroke: rgb(0, 0, 0); stroke-width: 1px; fill: none; marker-end: url(&quot;#arrowhead&quot;);"/><path id="edge-sequential_1/conv1d_1_2/Relu;sequential_1/conv1d_1_2/BiasAdd;sequential_1/conv1d_1_2/convolution/Squeeze;;sequential_1/conv1d_1_2/convolution&#10;18" class="edge-path" d="M80.39892578125,552L80.39892578125,555.6666666666666C80.39892578125,559.3333333333334,80.39892578125,566.6666666666666,80.39892578125,574C80.39892578125,581.3333333333334,80.39892578125,588.6666666666666,80.39892578125,592.3333333333334L80.39892578125,596" style="stroke: rgb(0, 0, 0); stroke-width: 1px; fill: none; marker-end: url(&quot;#arrowhead&quot;);"/><path id="edge-sequential_1/conv1d_1_2/Relu;sequential_1/conv1d_1_2/BiasAdd;sequential_1/conv1d_1_2/convolution/Squeeze;&#10;19" class="edge-path" d="M80.39892578125,639L80.39892578125,642.6666666666666C80.39892578125,646.3333333333334,80.39892578125,653.6666666666666,80.39892578125,661C80.39892578125,668.3333333333334,80.39892578125,675.6666666666666,80.39892578125,679.3333333333334L80.39892578125,683" style="stroke: rgb(0, 0, 0); stroke-width: 1px; fill: none; marker-end: url(&quot;#arrowhead&quot;);"/><path id="edge-sequential_1/max_pooling1d_1/MaxPool1d/ExpandDims&#10;20" class="edge-path" d="M80.39892578125,726L80.39892578125,729.6666666666666C80.39892578125,733.3333333333334,80.39892578125,740.6666666666666,80.39892578125,748C80.39892578125,755.3333333333334,80.39892578125,762.6666666666666,80.39892578125,766.3333333333334L80.39892578125,770" style="stroke: rgb(0, 0, 0); stroke-width: 1px; fill: none; marker-end: url(&quot;#arrowhead&quot;);"/><path id="edge-sequential_1/max_pooling1d_1/MaxPool1d&#10;21" class="edge-path" d="M80.39892578125,793L80.39892578125,796.6666666666666C80.39892578125,800.3333333333334,80.39892578125,807.6666666666666,80.39892578125,815C80.39892578125,822.3333333333334,80.39892578125,829.6666666666666,80.39892578125,833.3333333333334L80.39892578125,837" style="stroke: rgb(0, 0, 0); stroke-width: 1px; fill: none; marker-end: url(&quot;#arrowhead&quot;);"/><path id="edge-sequential_1/flatten_1/Reshape&#10;22" class="edge-path" d="M80.39892578125,880L80.39892578125,883.6666666666666C80.39892578125,887.3333333333334,80.39892578125,894.6666666666666,80.39892578125,902C80.39892578125,909.3333333333334,80.39892578125,916.6666666666666,80.39892578125,920.3333333333334L80.39892578125,924" style="stroke: rgb(0, 0, 0); stroke-width: 1px; fill: none; marker-end: url(&quot;#arrowhead&quot;);"/><path id="edge-sequential_1/dense_1/MatMul;sequential_1/dense_1/Relu;sequential_1/dense_1/BiasAdd&#10;23" class="edge-path" d="M80.39892578125,1004L80.39892578125,1007.6666666666666C80.39892578125,1011.3333333333334,80.39892578125,1018.6666666666666,80.39892578125,1026C80.39892578125,1033.3333333333333,80.39892578125,1040.6666666666667,80.39892578125,1044.3333333333333L80.39892578125,1048" style="stroke: rgb(0, 0, 0); stroke-width: 1px; fill: none; marker-end: url(&quot;#arrowhead&quot;);"/><path id="edge-sequential_1/dense_1_2/MatMul;sequential_1/dense_1_2/BiasAdd&#10;24" class="edge-path" d="M80.39892578125,1105L80.39892578125,1108.6666666666667C80.39892578125,1112.3333333333333,80.39892578125,1119.6666666666667,80.39892578125,1127C80.39892578125,1134.3333333333333,80.39892578125,1141.6666666666667,80.39892578125,1145.3333333333333L80.39892578125,1149" style="stroke: rgb(0, 0, 0); stroke-width: 1px; fill: none; marker-end: url(&quot;#arrowhead&quot;);"/><path id="edge-StatefulPartitionedCall_1:0&#10;25" class="edge-path" d="M80.39892578125,1172L80.39892578125,1175.6666666666667C80.39892578125,1179.3333333333333,80.39892578125,1186.6666666666667,80.39892578125,1194C80.39892578125,1201.3333333333333,80.39892578125,1208.6666666666667,80.39892578125,1212.3333333333333L80.39892578125,1216" style="stroke: rgb(0, 0, 0); stroke-width: 1px; fill: none; marker-end: url(&quot;#arrowhead&quot;);"/></g><g id="edge-labels" class="edge-labels"><text class="edge-label" id="edge-label-edge-serving_default_keras_tensor:0&#10;0" style="opacity: 1; font-family: -apple-system, BlinkMacSystemFont, &quot;Segoe WPC&quot;, &quot;Segoe UI&quot;, Ubuntu, &quot;Droid Sans&quot;, sans-serif, &quot;PingFang SC&quot;; font-size: 10px;" transform="translate(85.39892578125,48)"><tspan xml:space="preserve" dy="1em" x="1">?×128×6</tspan></text><text class="edge-label" id="edge-label-edge-sequential_1/conv1d_1/convolution/ExpandDims&#10;14" style="opacity: 1; font-family: -apple-system, BlinkMacSystemFont, &quot;Segoe WPC&quot;, &quot;Segoe UI&quot;, Ubuntu, &quot;Droid Sans&quot;, sans-serif, &quot;PingFang SC&quot;; font-size: 10px;" transform="translate(85.39892578125,145)"><tspan xml:space="preserve" dy="1em" x="1">?×1×128×6</tspan></text><text class="edge-label" id="edge-label-edge-sequential_1/conv1d_1/Relu;sequential_1/conv1d_1/BiasAdd;sequential_1/conv1d_1/convolution/Squeeze;;sequential_1/conv1d_1/convolution&#10;15" style="opacity: 1; font-family: -apple-system, BlinkMacSystemFont, &quot;Segoe WPC&quot;, &quot;Segoe UI&quot;, Ubuntu, &quot;Droid Sans&quot;, sans-serif, &quot;PingFang SC&quot;; font-size: 10px;" transform="translate(85.39892578125,269)"><tspan xml:space="preserve" dy="1em" x="1">?×1×126×32</tspan></text><text class="edge-label" id="edge-label-edge-sequential_1/conv1d_1/Relu;sequential_1/conv1d_1/BiasAdd;sequential_1/conv1d_1/convolution/Squeeze;&#10;16" style="opacity: 1; font-family: -apple-system, BlinkMacSystemFont, &quot;Segoe WPC&quot;, &quot;Segoe UI&quot;, Ubuntu, &quot;Droid Sans&quot;, sans-serif, &quot;PingFang SC&quot;; font-size: 10px;" transform="translate(85.39892578125,356)"><tspan xml:space="preserve" dy="1em" x="1">?×126×32</tspan></text><text class="edge-label" id="edge-label-edge-sequential_1/conv1d_1_2/convolution/ExpandDims&#10;17" style="opacity: 1; font-family: -apple-system, BlinkMacSystemFont, &quot;Segoe WPC&quot;, &quot;Segoe UI&quot;, Ubuntu, &quot;Droid Sans&quot;, sans-serif, &quot;PingFang SC&quot;; font-size: 10px;" transform="translate(85.39892578125,443)"><tspan xml:space="preserve" dy="1em" x="1">?×1×126×32</tspan></text><text class="edge-label" id="edge-label-edge-sequential_1/conv1d_1_2/Relu;sequential_1/conv1d_1_2/BiasAdd;sequential_1/conv1d_1_2/convolution/Squeeze;;sequential_1/conv1d_1_2/convolution&#10;18" style="opacity: 1; font-family: -apple-system, BlinkMacSystemFont, &quot;Segoe WPC&quot;, &quot;Segoe UI&quot;, Ubuntu, &quot;Droid Sans&quot;, sans-serif, &quot;PingFang SC&quot;; font-size: 10px;" transform="translate(85.39892578125,567)"><tspan xml:space="preserve" dy="1em" x="1">?×1×124×32</tspan></text><text class="edge-label" id="edge-label-edge-sequential_1/conv1d_1_2/Relu;sequential_1/conv1d_1_2/BiasAdd;sequential_1/conv1d_1_2/convolution/Squeeze;&#10;19" style="opacity: 1; font-family: -apple-system, BlinkMacSystemFont, &quot;Segoe WPC&quot;, &quot;Segoe UI&quot;, Ubuntu, &quot;Droid Sans&quot;, sans-serif, &quot;PingFang SC&quot;; font-size: 10px;" transform="translate(85.39892578125,654)"><tspan xml:space="preserve" dy="1em" x="1">?×124×32</tspan></text><text class="edge-label" id="edge-label-edge-sequential_1/max_pooling1d_1/MaxPool1d/ExpandDims&#10;20" style="opacity: 1; font-family: -apple-system, BlinkMacSystemFont, &quot;Segoe WPC&quot;, &quot;Segoe UI&quot;, Ubuntu, &quot;Droid Sans&quot;, sans-serif, &quot;PingFang SC&quot;; font-size: 10px;" transform="translate(85.39892578125,741)"><tspan xml:space="preserve" dy="1em" x="1">?×1×124×32</tspan></text><text class="edge-label" id="edge-label-edge-sequential_1/max_pooling1d_1/MaxPool1d&#10;21" style="opacity: 1; font-family: -apple-system, BlinkMacSystemFont, &quot;Segoe WPC&quot;, &quot;Segoe UI&quot;, Ubuntu, &quot;Droid Sans&quot;, sans-serif, &quot;PingFang SC&quot;; font-size: 10px;" transform="translate(85.39892578125,808)"><tspan xml:space="preserve" dy="1em" x="1">?×1×62×32</tspan></text><text class="edge-label" id="edge-label-edge-sequential_1/flatten_1/Reshape&#10;22" style="opacity: 1; font-family: -apple-system, BlinkMacSystemFont, &quot;Segoe WPC&quot;, &quot;Segoe UI&quot;, Ubuntu, &quot;Droid Sans&quot;, sans-serif, &quot;PingFang SC&quot;; font-size: 10px;" transform="translate(85.39892578125,895)"><tspan xml:space="preserve" dy="1em" x="1">?×1984</tspan></text><text class="edge-label" id="edge-label-edge-sequential_1/dense_1/MatMul;sequential_1/dense_1/Relu;sequential_1/dense_1/BiasAdd&#10;23" style="opacity: 1; font-family: -apple-system, BlinkMacSystemFont, &quot;Segoe WPC&quot;, &quot;Segoe UI&quot;, Ubuntu, &quot;Droid Sans&quot;, sans-serif, &quot;PingFang SC&quot;; font-size: 10px;" transform="translate(85.39892578125,1019)"><tspan xml:space="preserve" dy="1em" x="1">?×32</tspan></text><text class="edge-label" id="edge-label-edge-sequential_1/dense_1_2/MatMul;sequential_1/dense_1_2/BiasAdd&#10;24" style="opacity: 1; font-family: -apple-system, BlinkMacSystemFont, &quot;Segoe WPC&quot;, &quot;Segoe UI&quot;, Ubuntu, &quot;Droid Sans&quot;, sans-serif, &quot;PingFang SC&quot;; font-size: 10px;" transform="translate(85.39892578125,1120)"><tspan xml:space="preserve" dy="1em" x="1">?×7</tspan></text><text class="edge-label" id="edge-label-edge-StatefulPartitionedCall_1:0&#10;25" style="opacity: 1; font-family: -apple-system, BlinkMacSystemFont, &quot;Segoe WPC&quot;, &quot;Segoe UI&quot;, Ubuntu, &quot;Droid Sans&quot;, sans-serif, &quot;PingFang SC&quot;; font-size: 10px;" transform="translate(85.39892578125,1187)"><tspan xml:space="preserve" dy="1em" x="1">?×7</tspan></text></g><g id="nodes" class="nodes"><g id="input-name-serving_default_keras_tensor:0" class="node graph-input" style="" transform="translate(0,0)"><g class="node-item graph-item-input" transform="translate(0,0)"><path d="M5,0h150.7978515625a5,5 0 0 1 5,5v13a5,5 0 0 1 -5,5h-150.7978515625a5,5 0 0 1 -5,-5v-13a5,5 0 0 1 5,-5z" style="stroke: rgb(0, 0, 0); fill: rgb(238, 238, 238); stroke-width: 0;"/><text x="6" y="16" style="font-family: -apple-system, BlinkMacSystemFont, &quot;Segoe WPC&quot;, &quot;Segoe UI&quot;, Ubuntu, &quot;Droid Sans&quot;, sans-serif, &quot;PingFang SC&quot;; font-size: 11px; text-rendering: geometricprecision; user-select: none;">serving_default_keras_tensor:0</text><title>int8[-1,128,6]</title></g><path class="node node-border" d="M5,0h150.7978515625a5,5 0 0 1 5,5v13a5,5 0 0 1 -5,5h-150.7978515625a5,5 0 0 1 -5,-5v-13a5,5 0 0 1 5,-5z" style="stroke: rgb(51, 51, 51); fill: none; stroke-width: 1px;"/></g><g id="node-id-0" class="node graph-node" style="" transform="translate(42.6650390625,87)"><g class="node-item node-item-type" transform="translate(0,0)"><path d="M5,0h65.4677734375a5,5 0 0 1 5,5v18a0,0 0 0 1 0,0h-75.4677734375a0,0 0 0 1 0,0v-18a5,5 0 0 1 5,-5z" style="stroke: rgb(0, 0, 0); fill: rgb(0, 0, 0); stroke-width: 0;"/><text x="6" y="16" style="font-family: -apple-system, BlinkMacSystemFont, &quot;Segoe WPC&quot;, &quot;Segoe UI&quot;, Ubuntu, &quot;Droid Sans&quot;, sans-serif, &quot;PingFang SC&quot;; font-size: 11px; text-rendering: geometricprecision; user-select: none; fill: rgb(255, 255, 255);">ExpandDims</text><title>0</title></g><g class="node-argument-list" transform="translate(0,23)"><path d="M0,0h75.4677734375a0,0 0 0 1 0,0v15a5,5 0 0 1 -5,5h-65.4677734375a5,5 0 0 1 -5,-5v-15a0,0 0 0 1 0,0z" style="stroke: rgb(0, 0, 0); fill: rgb(255, 255, 255); stroke-width: 0;"/><g class="node-argument"><rect rx="3" ry="3" x="3" y="3" width="69.4677734375" height="14" style="fill: transparent;"/><text xml:space="preserve" x="6" y="14" style="font-family: -apple-system, BlinkMacSystemFont, &quot;Segoe WPC&quot;, &quot;Segoe UI&quot;, Ubuntu, &quot;Droid Sans&quot;, sans-serif, &quot;PingFang SC&quot;; font-size: 9px; font-weight: normal; text-rendering: geometricprecision; user-select: none;"><title>int32</title><tspan>axis_param</tspan><tspan> = -3</tspan></text></g><line class="node" x1="0" x2="75.4677734375" y1="0" y2="0" style="stroke: rgb(51, 51, 51); fill: none; stroke-width: 1px;"/></g><path class="node node-border" d="M5,0h65.4677734375a5,5 0 0 1 5,5v33a5,5 0 0 1 -5,5h-65.4677734375a5,5 0 0 1 -5,-5v-33a5,5 0 0 1 5,-5z" style="stroke: rgb(51, 51, 51); fill: none; stroke-width: 1px;"/></g><g id="node-id-1" class="node graph-node" style="" transform="translate(33.28955078125,174)"><g class="node-item node-item-type node-item-type-layer" transform="translate(0,0)"><path d="M5,0h84.21875a5,5 0 0 1 5,5v18a0,0 0 0 1 0,0h-94.21875a0,0 0 0 1 0,0v-18a5,5 0 0 1 5,-5z" style="stroke: rgb(0, 0, 0); fill: rgb(51, 85, 136); stroke-width: 0;"/><text x="6" y="16" style="font-family: -apple-system, BlinkMacSystemFont, &quot;Segoe WPC&quot;, &quot;Segoe UI&quot;, Ubuntu, &quot;Droid Sans&quot;, sans-serif, &quot;PingFang SC&quot;; font-size: 11px; text-rendering: geometricprecision; user-select: none; fill: rgb(255, 255, 255);">Conv2D</text><title>1</title></g><g class="node-argument-list" transform="translate(0,23)"><path d="M0,0h94.21875a0,0 0 0 1 0,0v34a0,0 0 0 1 0,0h-94.21875a0,0 0 0 1 0,0v-34a0,0 0 0 1 0,0z" style="stroke: rgb(0, 0, 0); fill: rgb(255, 255, 255); stroke-width: 0;"/><g class="node-argument"><rect rx="3" ry="3" x="3" y="3" width="88.21875" height="14" style="fill: transparent;"/><text xml:space="preserve" x="6" y="14" style="font-family: -apple-system, BlinkMacSystemFont, &quot;Segoe WPC&quot;, &quot;Segoe UI&quot;, Ubuntu, &quot;Droid Sans&quot;, sans-serif, &quot;PingFang SC&quot;; font-size: 9px; font-weight: normal; text-rendering: geometricprecision; user-select: none;"><title>int8[32,1,3,6]</title><tspan style="font-weight: bold;">filter</tspan><tspan>〈32×1×3×6〉</tspan></text></g><g class="node-argument"><rect rx="3" ry="3" x="3" y="17" width="88.21875" height="14" style="fill: transparent;"/><text xml:space="preserve" x="6" y="28" style="font-family: -apple-system, BlinkMacSystemFont, &quot;Segoe WPC&quot;, &quot;Segoe UI&quot;, Ubuntu, &quot;Droid Sans&quot;, sans-serif, &quot;PingFang SC&quot;; font-size: 9px; font-weight: normal; text-rendering: geometricprecision; user-select: none;"><title>int32[32]</title><tspan style="font-weight: bold;">bias</tspan><tspan>〈32〉</tspan></text></g><line class="node" x1="0" x2="94.21875" y1="0" y2="0" style="stroke: rgb(51, 51, 51); fill: none; stroke-width: 1px;"/></g><g class="node-item node-item-type node-item-type-activation" transform="translate(0,57)"><path d="M0,0h94.21875a0,0 0 0 1 0,0v18a5,5 0 0 1 -5,5h-84.21875a5,5 0 0 1 -5,-5v-18a0,0 0 0 1 0,0z" style="stroke: rgb(0, 0, 0); fill: rgb(112, 41, 33); stroke-width: 0;"/><text x="6" y="16" style="font-family: -apple-system, BlinkMacSystemFont, &quot;Segoe WPC&quot;, &quot;Segoe UI&quot;, Ubuntu, &quot;Droid Sans&quot;, sans-serif, &quot;PingFang SC&quot;; font-size: 11px; text-rendering: geometricprecision; user-select: none; fill: rgb(255, 255, 255);">Relu</text></g><line class="node" x1="0" x2="94.21875" y1="57" y2="57" style="stroke: rgb(51, 51, 51); fill: none; stroke-width: 1px;"/><path class="node node-border" d="M5,0h84.21875a5,5 0 0 1 5,5v70a5,5 0 0 1 -5,5h-84.21875a5,5 0 0 1 -5,-5v-70a5,5 0 0 1 5,-5z" style="stroke: rgb(51, 51, 51); fill: none; stroke-width: 1px;"/></g><g id="node-id-3" class="node graph-node" style="" transform="translate(42.89892578125,298)"><g class="node-item node-item-type node-item-type-shape" transform="translate(0,0)"><path d="M5,0h65a5,5 0 0 1 5,5v18a0,0 0 0 1 0,0h-75a0,0 0 0 1 0,0v-18a5,5 0 0 1 5,-5z" style="stroke: rgb(0, 0, 0); fill: rgb(108, 79, 71); stroke-width: 0;"/><text x="6" y="16" style="font-family: -apple-system, BlinkMacSystemFont, &quot;Segoe WPC&quot;, &quot;Segoe UI&quot;, Ubuntu, &quot;Droid Sans&quot;, sans-serif, &quot;PingFang SC&quot;; font-size: 11px; text-rendering: geometricprecision; user-select: none; fill: rgb(255, 255, 255);">Reshape</text><title>2</title></g><g class="node-argument-list" transform="translate(0,23)"><path d="M0,0h75a0,0 0 0 1 0,0v15a5,5 0 0 1 -5,5h-65a5,5 0 0 1 -5,-5v-15a0,0 0 0 1 0,0z" style="stroke: rgb(0, 0, 0); fill: rgb(255, 255, 255); stroke-width: 0;"/><g class="node-argument"><rect rx="3" ry="3" x="3" y="3" width="69" height="14" style="fill: transparent;"/><text xml:space="preserve" x="6" y="14" style="font-family: -apple-system, BlinkMacSystemFont, &quot;Segoe WPC&quot;, &quot;Segoe UI&quot;, Ubuntu, &quot;Droid Sans&quot;, sans-serif, &quot;PingFang SC&quot;; font-size: 9px; font-weight: normal; text-rendering: geometricprecision; user-select: none;"><title>int32[3]</title><tspan style="font-weight: bold;">shape</tspan><tspan>〈3〉</tspan></text></g><line class="node" x1="0" x2="75" y1="0" y2="0" style="stroke: rgb(51, 51, 51); fill: none; stroke-width: 1px;"/></g><path class="node node-border" d="M5,0h65a5,5 0 0 1 5,5v33a5,5 0 0 1 -5,5h-65a5,5 0 0 1 -5,-5v-33a5,5 0 0 1 5,-5z" style="stroke: rgb(51, 51, 51); fill: none; stroke-width: 1px;"/></g><g id="node-id-4" class="node graph-node" style="" transform="translate(42.6650390625,385)"><g class="node-item node-item-type" transform="translate(0,0)"><path d="M5,0h65.4677734375a5,5 0 0 1 5,5v18a0,0 0 0 1 0,0h-75.4677734375a0,0 0 0 1 0,0v-18a5,5 0 0 1 5,-5z" style="stroke: rgb(0, 0, 0); fill: rgb(0, 0, 0); stroke-width: 0;"/><text x="6" y="16" style="font-family: -apple-system, BlinkMacSystemFont, &quot;Segoe WPC&quot;, &quot;Segoe UI&quot;, Ubuntu, &quot;Droid Sans&quot;, sans-serif, &quot;PingFang SC&quot;; font-size: 11px; text-rendering: geometricprecision; user-select: none; fill: rgb(255, 255, 255);">ExpandDims</text><title>3</title></g><g class="node-argument-list" transform="translate(0,23)"><path d="M0,0h75.4677734375a0,0 0 0 1 0,0v15a5,5 0 0 1 -5,5h-65.4677734375a5,5 0 0 1 -5,-5v-15a0,0 0 0 1 0,0z" style="stroke: rgb(0, 0, 0); fill: rgb(255, 255, 255); stroke-width: 0;"/><g class="node-argument"><rect rx="3" ry="3" x="3" y="3" width="69.4677734375" height="14" style="fill: transparent;"/><text xml:space="preserve" x="6" y="14" style="font-family: -apple-system, BlinkMacSystemFont, &quot;Segoe WPC&quot;, &quot;Segoe UI&quot;, Ubuntu, &quot;Droid Sans&quot;, sans-serif, &quot;PingFang SC&quot;; font-size: 9px; font-weight: normal; text-rendering: geometricprecision; user-select: none;"><title>int32</title><tspan>axis_param</tspan><tspan> = -3</tspan></text></g><line class="node" x1="0" x2="75.4677734375" y1="0" y2="0" style="stroke: rgb(51, 51, 51); fill: none; stroke-width: 1px;"/></g><path class="node node-border" d="M5,0h65.4677734375a5,5 0 0 1 5,5v33a5,5 0 0 1 -5,5h-65.4677734375a5,5 0 0 1 -5,-5v-33a5,5 0 0 1 5,-5z" style="stroke: rgb(51, 51, 51); fill: none; stroke-width: 1px;"/></g><g id="node-id-5" class="node graph-node" style="" transform="translate(30.85986328125,472)"><g class="node-item node-item-type node-item-type-layer" transform="translate(0,0)"><path d="M5,0h89.078125a5,5 0 0 1 5,5v18a0,0 0 0 1 0,0h-99.078125a0,0 0 0 1 0,0v-18a5,5 0 0 1 5,-5z" style="stroke: rgb(0, 0, 0); fill: rgb(51, 85, 136); stroke-width: 0;"/><text x="6" y="16" style="font-family: -apple-system, BlinkMacSystemFont, &quot;Segoe WPC&quot;, &quot;Segoe UI&quot;, Ubuntu, &quot;Droid Sans&quot;, sans-serif, &quot;PingFang SC&quot;; font-size: 11px; text-rendering: geometricprecision; user-select: none; fill: rgb(255, 255, 255);">Conv2D</text><title>4</title></g><g class="node-argument-list" transform="translate(0,23)"><path d="M0,0h99.078125a0,0 0 0 1 0,0v34a0,0 0 0 1 0,0h-99.078125a0,0 0 0 1 0,0v-34a0,0 0 0 1 0,0z" style="stroke: rgb(0, 0, 0); fill: rgb(255, 255, 255); stroke-width: 0;"/><g class="node-argument"><rect rx="3" ry="3" x="3" y="3" width="93.078125" height="14" style="fill: transparent;"/><text xml:space="preserve" x="6" y="14" style="font-family: -apple-system, BlinkMacSystemFont, &quot;Segoe WPC&quot;, &quot;Segoe UI&quot;, Ubuntu, &quot;Droid Sans&quot;, sans-serif, &quot;PingFang SC&quot;; font-size: 9px; font-weight: normal; text-rendering: geometricprecision; user-select: none;"><title>int8[32,1,3,32]</title><tspan style="font-weight: bold;">filter</tspan><tspan>〈32×1×3×32〉</tspan></text></g><g class="node-argument"><rect rx="3" ry="3" x="3" y="17" width="93.078125" height="14" style="fill: transparent;"/><text xml:space="preserve" x="6" y="28" style="font-family: -apple-system, BlinkMacSystemFont, &quot;Segoe WPC&quot;, &quot;Segoe UI&quot;, Ubuntu, &quot;Droid Sans&quot;, sans-serif, &quot;PingFang SC&quot;; font-size: 9px; font-weight: normal; text-rendering: geometricprecision; user-select: none;"><title>int32[32]</title><tspan style="font-weight: bold;">bias</tspan><tspan>〈32〉</tspan></text></g><line class="node" x1="0" x2="99.078125" y1="0" y2="0" style="stroke: rgb(51, 51, 51); fill: none; stroke-width: 1px;"/></g><g class="node-item node-item-type node-item-type-activation" transform="translate(0,57)"><path d="M0,0h99.078125a0,0 0 0 1 0,0v18a5,5 0 0 1 -5,5h-89.078125a5,5 0 0 1 -5,-5v-18a0,0 0 0 1 0,0z" style="stroke: rgb(0, 0, 0); fill: rgb(112, 41, 33); stroke-width: 0;"/><text x="6" y="16" style="font-family: -apple-system, BlinkMacSystemFont, &quot;Segoe WPC&quot;, &quot;Segoe UI&quot;, Ubuntu, &quot;Droid Sans&quot;, sans-serif, &quot;PingFang SC&quot;; font-size: 11px; text-rendering: geometricprecision; user-select: none; fill: rgb(255, 255, 255);">Relu</text></g><line class="node" x1="0" x2="99.078125" y1="57" y2="57" style="stroke: rgb(51, 51, 51); fill: none; stroke-width: 1px;"/><path class="node node-border" d="M5,0h89.078125a5,5 0 0 1 5,5v70a5,5 0 0 1 -5,5h-89.078125a5,5 0 0 1 -5,-5v-70a5,5 0 0 1 5,-5z" style="stroke: rgb(51, 51, 51); fill: none; stroke-width: 1px;"/></g><g id="node-id-7" class="node graph-node" style="" transform="translate(42.89892578125,596)"><g class="node-item node-item-type node-item-type-shape" transform="translate(0,0)"><path d="M5,0h65a5,5 0 0 1 5,5v18a0,0 0 0 1 0,0h-75a0,0 0 0 1 0,0v-18a5,5 0 0 1 5,-5z" style="stroke: rgb(0, 0, 0); fill: rgb(108, 79, 71); stroke-width: 0;"/><text x="6" y="16" style="font-family: -apple-system, BlinkMacSystemFont, &quot;Segoe WPC&quot;, &quot;Segoe UI&quot;, Ubuntu, &quot;Droid Sans&quot;, sans-serif, &quot;PingFang SC&quot;; font-size: 11px; text-rendering: geometricprecision; user-select: none; fill: rgb(255, 255, 255);">Reshape</text><title>5</title></g><g class="node-argument-list" transform="translate(0,23)"><path d="M0,0h75a0,0 0 0 1 0,0v15a5,5 0 0 1 -5,5h-65a5,5 0 0 1 -5,-5v-15a0,0 0 0 1 0,0z" style="stroke: rgb(0, 0, 0); fill: rgb(255, 255, 255); stroke-width: 0;"/><g class="node-argument"><rect rx="3" ry="3" x="3" y="3" width="69" height="14" style="fill: transparent;"/><text xml:space="preserve" x="6" y="14" style="font-family: -apple-system, BlinkMacSystemFont, &quot;Segoe WPC&quot;, &quot;Segoe UI&quot;, Ubuntu, &quot;Droid Sans&quot;, sans-serif, &quot;PingFang SC&quot;; font-size: 9px; font-weight: normal; text-rendering: geometricprecision; user-select: none;"><title>int32[3]</title><tspan style="font-weight: bold;">shape</tspan><tspan>〈3〉</tspan></text></g><line class="node" x1="0" x2="75" y1="0" y2="0" style="stroke: rgb(51, 51, 51); fill: none; stroke-width: 1px;"/></g><path class="node node-border" d="M5,0h65a5,5 0 0 1 5,5v33a5,5 0 0 1 -5,5h-65a5,5 0 0 1 -5,-5v-33a5,5 0 0 1 5,-5z" style="stroke: rgb(51, 51, 51); fill: none; stroke-width: 1px;"/></g><g id="node-id-8" class="node graph-node" style="" transform="translate(42.89892578125,683)"><g class="node-item node-item-type" transform="translate(0,0)"><path d="M5,0h65a5,5 0 0 1 5,5v18a0,0 0 0 1 0,0h-75a0,0 0 0 1 0,0v-18a5,5 0 0 1 5,-5z" style="stroke: rgb(0, 0, 0); fill: rgb(0, 0, 0); stroke-width: 0;"/><text x="6" y="16" style="font-family: -apple-system, BlinkMacSystemFont, &quot;Segoe WPC&quot;, &quot;Segoe UI&quot;, Ubuntu, &quot;Droid Sans&quot;, sans-serif, &quot;PingFang SC&quot;; font-size: 11px; text-rendering: geometricprecision; user-select: none; fill: rgb(255, 255, 255);">ExpandDims</text><title>6</title></g><g class="node-argument-list" transform="translate(0,23)"><path d="M0,0h75a0,0 0 0 1 0,0v15a5,5 0 0 1 -5,5h-65a5,5 0 0 1 -5,-5v-15a0,0 0 0 1 0,0z" style="stroke: rgb(0, 0, 0); fill: rgb(255, 255, 255); stroke-width: 0;"/><g class="node-argument"><rect rx="3" ry="3" x="3" y="3" width="69" height="14" style="fill: transparent;"/><text xml:space="preserve" x="6" y="14" style="font-family: -apple-system, BlinkMacSystemFont, &quot;Segoe WPC&quot;, &quot;Segoe UI&quot;, Ubuntu, &quot;Droid Sans&quot;, sans-serif, &quot;PingFang SC&quot;; font-size: 9px; font-weight: normal; text-rendering: geometricprecision; user-select: none;"><title>int32</title><tspan>axis_param</tspan><tspan> = 1</tspan></text></g><line class="node" x1="0" x2="75" y1="0" y2="0" style="stroke: rgb(51, 51, 51); fill: none; stroke-width: 1px;"/></g><path class="node node-border" d="M5,0h65a5,5 0 0 1 5,5v33a5,5 0 0 1 -5,5h-65a5,5 0 0 1 -5,-5v-33a5,5 0 0 1 5,-5z" style="stroke: rgb(51, 51, 51); fill: none; stroke-width: 1px;"/></g><g id="node-id-9" class="node graph-node" style="" transform="translate(45.51904296875,770)"><g class="node-item node-item-type node-item-type-pool" transform="translate(0,0)"><path d="M5,0h59.759765625a5,5 0 0 1 5,5v13a5,5 0 0 1 -5,5h-59.759765625a5,5 0 0 1 -5,-5v-13a5,5 0 0 1 5,-5z" style="stroke: rgb(0, 0, 0); fill: rgb(51, 85, 51); stroke-width: 0;"/><text x="6" y="16" style="font-family: -apple-system, BlinkMacSystemFont, &quot;Segoe WPC&quot;, &quot;Segoe UI&quot;, Ubuntu, &quot;Droid Sans&quot;, sans-serif, &quot;PingFang SC&quot;; font-size: 11px; text-rendering: geometricprecision; user-select: none; fill: rgb(255, 255, 255);">MaxPool2D</text><title>7</title></g><path class="node node-border" d="M5,0h59.759765625a5,5 0 0 1 5,5v13a5,5 0 0 1 -5,5h-59.759765625a5,5 0 0 1 -5,-5v-13a5,5 0 0 1 5,-5z" style="stroke: rgb(51, 51, 51); fill: none; stroke-width: 1px;"/></g><g id="node-id-10" class="node graph-node" style="" transform="translate(42.89892578125,837)"><g class="node-item node-item-type node-item-type-shape" transform="translate(0,0)"><path d="M5,0h65a5,5 0 0 1 5,5v18a0,0 0 0 1 0,0h-75a0,0 0 0 1 0,0v-18a5,5 0 0 1 5,-5z" style="stroke: rgb(0, 0, 0); fill: rgb(108, 79, 71); stroke-width: 0;"/><text x="6" y="16" style="font-family: -apple-system, BlinkMacSystemFont, &quot;Segoe WPC&quot;, &quot;Segoe UI&quot;, Ubuntu, &quot;Droid Sans&quot;, sans-serif, &quot;PingFang SC&quot;; font-size: 11px; text-rendering: geometricprecision; user-select: none; fill: rgb(255, 255, 255);">Reshape</text><title>8</title></g><g class="node-argument-list" transform="translate(0,23)"><path d="M0,0h75a0,0 0 0 1 0,0v15a5,5 0 0 1 -5,5h-65a5,5 0 0 1 -5,-5v-15a0,0 0 0 1 0,0z" style="stroke: rgb(0, 0, 0); fill: rgb(255, 255, 255); stroke-width: 0;"/><g class="node-argument"><rect rx="3" ry="3" x="3" y="3" width="69" height="14" style="fill: transparent;"/><text xml:space="preserve" x="6" y="14" style="font-family: -apple-system, BlinkMacSystemFont, &quot;Segoe WPC&quot;, &quot;Segoe UI&quot;, Ubuntu, &quot;Droid Sans&quot;, sans-serif, &quot;PingFang SC&quot;; font-size: 9px; font-weight: normal; text-rendering: geometricprecision; user-select: none;"><title>int32[2]</title><tspan style="font-weight: bold;">shape</tspan><tspan>〈2〉</tspan></text></g><line class="node" x1="0" x2="75" y1="0" y2="0" style="stroke: rgb(51, 51, 51); fill: none; stroke-width: 1px;"/></g><path class="node node-border" d="M5,0h65a5,5 0 0 1 5,5v33a5,5 0 0 1 -5,5h-65a5,5 0 0 1 -5,-5v-33a5,5 0 0 1 5,-5z" style="stroke: rgb(51, 51, 51); fill: none; stroke-width: 1px;"/></g><g id="node-id-11" class="node graph-node" style="" transform="translate(30.75048828125,924)"><g class="node-item node-item-type node-item-type-layer" transform="translate(0,0)"><path d="M5,0h89.296875a5,5 0 0 1 5,5v18a0,0 0 0 1 0,0h-99.296875a0,0 0 0 1 0,0v-18a5,5 0 0 1 5,-5z" style="stroke: rgb(0, 0, 0); fill: rgb(51, 85, 136); stroke-width: 0;"/><text x="6" y="16" style="font-family: -apple-system, BlinkMacSystemFont, &quot;Segoe WPC&quot;, &quot;Segoe UI&quot;, Ubuntu, &quot;Droid Sans&quot;, sans-serif, &quot;PingFang SC&quot;; font-size: 11px; text-rendering: geometricprecision; user-select: none; fill: rgb(255, 255, 255);">FullyConnected</text><title>9</title></g><g class="node-argument-list" transform="translate(0,23)"><path d="M0,0h99.296875a0,0 0 0 1 0,0v34a0,0 0 0 1 0,0h-99.296875a0,0 0 0 1 0,0v-34a0,0 0 0 1 0,0z" style="stroke: rgb(0, 0, 0); fill: rgb(255, 255, 255); stroke-width: 0;"/><g class="node-argument"><rect rx="3" ry="3" x="3" y="3" width="93.296875" height="14" style="fill: transparent;"/><text xml:space="preserve" x="6" y="14" style="font-family: -apple-system, BlinkMacSystemFont, &quot;Segoe WPC&quot;, &quot;Segoe UI&quot;, Ubuntu, &quot;Droid Sans&quot;, sans-serif, &quot;PingFang SC&quot;; font-size: 9px; font-weight: normal; text-rendering: geometricprecision; user-select: none;"><title>int8[32,1984]</title><tspan style="font-weight: bold;">weights</tspan><tspan>〈32×1984〉</tspan></text></g><g class="node-argument"><rect rx="3" ry="3" x="3" y="17" width="93.296875" height="14" style="fill: transparent;"/><text xml:space="preserve" x="6" y="28" style="font-family: -apple-system, BlinkMacSystemFont, &quot;Segoe WPC&quot;, &quot;Segoe UI&quot;, Ubuntu, &quot;Droid Sans&quot;, sans-serif, &quot;PingFang SC&quot;; font-size: 9px; font-weight: normal; text-rendering: geometricprecision; user-select: none;"><title>int32[32]</title><tspan style="font-weight: bold;">bias</tspan><tspan>〈32〉</tspan></text></g><line class="node" x1="0" x2="99.296875" y1="0" y2="0" style="stroke: rgb(51, 51, 51); fill: none; stroke-width: 1px;"/></g><g class="node-item node-item-type node-item-type-activation" transform="translate(0,57)"><path d="M0,0h99.296875a0,0 0 0 1 0,0v18a5,5 0 0 1 -5,5h-89.296875a5,5 0 0 1 -5,-5v-18a0,0 0 0 1 0,0z" style="stroke: rgb(0, 0, 0); fill: rgb(112, 41, 33); stroke-width: 0;"/><text x="6" y="16" style="font-family: -apple-system, BlinkMacSystemFont, &quot;Segoe WPC&quot;, &quot;Segoe UI&quot;, Ubuntu, &quot;Droid Sans&quot;, sans-serif, &quot;PingFang SC&quot;; font-size: 11px; text-rendering: geometricprecision; user-select: none; fill: rgb(255, 255, 255);">Relu</text></g><line class="node" x1="0" x2="99.296875" y1="57" y2="57" style="stroke: rgb(51, 51, 51); fill: none; stroke-width: 1px;"/><path class="node node-border" d="M5,0h89.296875a5,5 0 0 1 5,5v70a5,5 0 0 1 -5,5h-89.296875a5,5 0 0 1 -5,-5v-70a5,5 0 0 1 5,-5z" style="stroke: rgb(51, 51, 51); fill: none; stroke-width: 1px;"/></g><g id="node-id-13" class="node graph-node" style="" transform="translate(36.02392578125,1048)"><g class="node-item node-item-type node-item-type-layer" transform="translate(0,0)"><path d="M5,0h78.75a5,5 0 0 1 5,5v18a0,0 0 0 1 0,0h-88.75a0,0 0 0 1 0,0v-18a5,5 0 0 1 5,-5z" style="stroke: rgb(0, 0, 0); fill: rgb(51, 85, 136); stroke-width: 0;"/><text x="6" y="16" style="font-family: -apple-system, BlinkMacSystemFont, &quot;Segoe WPC&quot;, &quot;Segoe UI&quot;, Ubuntu, &quot;Droid Sans&quot;, sans-serif, &quot;PingFang SC&quot;; font-size: 11px; text-rendering: geometricprecision; user-select: none; fill: rgb(255, 255, 255);">FullyConnected</text><title>10</title></g><g class="node-argument-list" transform="translate(0,23)"><path d="M0,0h88.75a0,0 0 0 1 0,0v29a5,5 0 0 1 -5,5h-78.75a5,5 0 0 1 -5,-5v-29a0,0 0 0 1 0,0z" style="stroke: rgb(0, 0, 0); fill: rgb(255, 255, 255); stroke-width: 0;"/><g class="node-argument"><rect rx="3" ry="3" x="3" y="3" width="82.75" height="14" style="fill: transparent;"/><text xml:space="preserve" x="6" y="14" style="font-family: -apple-system, BlinkMacSystemFont, &quot;Segoe WPC&quot;, &quot;Segoe UI&quot;, Ubuntu, &quot;Droid Sans&quot;, sans-serif, &quot;PingFang SC&quot;; font-size: 9px; font-weight: normal; text-rendering: geometricprecision; user-select: none;"><title>int8[7,32]</title><tspan style="font-weight: bold;">weights</tspan><tspan>〈7×32〉</tspan></text></g><g class="node-argument"><rect rx="3" ry="3" x="3" y="17" width="82.75" height="14" style="fill: transparent;"/><text xml:space="preserve" x="6" y="28" style="font-family: -apple-system, BlinkMacSystemFont, &quot;Segoe WPC&quot;, &quot;Segoe UI&quot;, Ubuntu, &quot;Droid Sans&quot;, sans-serif, &quot;PingFang SC&quot;; font-size: 9px; font-weight: normal; text-rendering: geometricprecision; user-select: none;"><title>int32[7]</title><tspan style="font-weight: bold;">bias</tspan><tspan>〈7〉</tspan></text></g><line class="node" x1="0" x2="88.75" y1="0" y2="0" style="stroke: rgb(51, 51, 51); fill: none; stroke-width: 1px;"/></g><path class="node node-border" d="M5,0h78.75a5,5 0 0 1 5,5v47a5,5 0 0 1 -5,5h-78.75a5,5 0 0 1 -5,-5v-47a5,5 0 0 1 5,-5z" style="stroke: rgb(51, 51, 51); fill: none; stroke-width: 1px;"/></g><g id="node-id-14" class="node graph-node" style="" transform="translate(53.133544921875,1149)"><g class="node-item node-item-type node-item-type-activation" transform="translate(0,0)"><path d="M5,0h44.53076171875a5,5 0 0 1 5,5v13a5,5 0 0 1 -5,5h-44.53076171875a5,5 0 0 1 -5,-5v-13a5,5 0 0 1 5,-5z" style="stroke: rgb(0, 0, 0); fill: rgb(112, 41, 33); stroke-width: 0;"/><text x="6" y="16" style="font-family: -apple-system, BlinkMacSystemFont, &quot;Segoe WPC&quot;, &quot;Segoe UI&quot;, Ubuntu, &quot;Droid Sans&quot;, sans-serif, &quot;PingFang SC&quot;; font-size: 11px; text-rendering: geometricprecision; user-select: none; fill: rgb(255, 255, 255);">Softmax</text><title>11</title></g><path class="node node-border" d="M5,0h44.53076171875a5,5 0 0 1 5,5v13a5,5 0 0 1 -5,5h-44.53076171875a5,5 0 0 1 -5,-5v-13a5,5 0 0 1 5,-5z" style="stroke: rgb(51, 51, 51); fill: none; stroke-width: 1px;"/></g><g class="node" style="" transform="translate(10.333984375,1216)"><g class="node-item graph-item-output" transform="translate(0,0)"><path d="M5,0h130.1298828125a5,5 0 0 1 5,5v13a5,5 0 0 1 -5,5h-130.1298828125a5,5 0 0 1 -5,-5v-13a5,5 0 0 1 5,-5z" style="stroke: rgb(0, 0, 0); fill: rgb(238, 238, 238); stroke-width: 0;"/><text x="6" y="16" style="font-family: -apple-system, BlinkMacSystemFont, &quot;Segoe WPC&quot;, &quot;Segoe UI&quot;, Ubuntu, &quot;Droid Sans&quot;, sans-serif, &quot;PingFang SC&quot;; font-size: 11px; text-rendering: geometricprecision; user-select: none;">StatefulPartitionedCall_1:0</text><title>int8[-1,7]</title></g><path class="node node-border" d="M5,0h130.1298828125a5,5 0 0 1 5,5v13a5,5 0 0 1 -5,5h-130.1298828125a5,5 0 0 1 -5,-5v-13a5,5 0 0 1 5,-5z" style="stroke: rgb(51, 51, 51); fill: none; stroke-width: 1px;"/></g></g></g></svg>